<?xml version="1.0" encoding="UTF-8" standalone="no"?>

<svg xmlns="http://www.w3.org/2000/svg" x="0px" y="0px" viewBox="0 0 256 256"
     xml:space="preserve">
    <path fill="#DAA520"
          id="path1"
          d="m 128,46.19922 c -7.39999,0 -13.40039,6.000399 -13.40039,13.40039 0,6.687083 4.89995,12.230215 11.30469,13.236329 -2.78842,36.697691 -6.69086,80.962071 -26.503909,89.464841 -19.984545,8.53095 -57.614884,-25.40239 -72.707032,-40.17969 1.915212,-1.80108 3.107422,-4.36096 3.107422,-7.2207 C 29.800781,109.4004 25.400385,105 19.900391,105 14.400396,104.9 10,109.4004 10,114.90039 c 0,5.5 4.400396,9.90039 9.900391,9.90039 1.756777,0 3.399438,-0.4519 4.824218,-1.24219 l 20.47461,35.04102 c 7.699984,13.29998 11.000002,24.00002 12,32.5 19.69996,-6.39998 44.200841,-10.19922 70.800781,-10.19922 26.59994,0 51.10082,3.79924 70.80078,10.19922 0.9,-8.49998 4.30002,-19.09885 12,-32.29883 l 20.56055,-35.1914 c 1.40444,0.76046 3.01735,1.1914 4.73828,1.1914 5.49999,0 9.90039,-4.40039 9.90039,-9.90039 C 246,109.4004 241.5996,105 236.09961,105 c -5.5,-0.1 -9.90039,4.4004 -9.90039,9.90039 0,2.91085 1.23329,5.51293 3.20898,7.31836 -15.01488,14.71627 -52.7742,48.83348 -72.80859,40.28125 -16.84614,-7.29772 -24.00844,-58.05319 -26.86523,-89.615233 6.58014,-0.851287 11.66601,-6.473378 11.66601,-13.285157 0,-7.399991 -6.0004,-13.40039 -13.40039,-13.40039 z m 0,142.5 c -26.19994,0 -50.400429,3.90041 -69.400391,10.40039 1.199998,3.9 1.900782,7.40117 2.300782,10.70117 18.699962,-5.99998 41.899669,-9.60156 67.099609,-9.60156 25.19994,0 48.49965,3.60158 67.09961,9.60156 0.4,-3.2 1.10078,-6.80117 2.30078,-10.70117 C 178.40043,192.59963 154.19994,188.69922 128,188.69922 Z"/>
</svg>