<svg version="1.2" xmlns="http://www.w3.org/2000/svg" viewBox="0 0 100 100"><defs><linearGradient id="a" x1="0" x2="0" y1="0" y2="1"><stop offset="0%" stop-color="#60e050"/><stop offset="100%" stop-color="green"/></linearGradient></defs><rect width="100" height="100" rx="15" ry="15" fill="url('#a')"/><circle cx="50" cy="50" r="39" stroke-width="5" stroke="#fff" fill="none"/><svg x="25%" y="24%" width="50%" height="50%" xmlns="http://www.w3.org/2000/svg" viewBox="0 0 512 512"><path d="M279 224V110c24 4 47 14 67 29 3 3 8 4 13 5 15 0 27-13 28-28 0-6-3-13-8-17-28-25-63-39-101-41V20c0-11-9-20-19-20h-1c-11 0-20 9-20 20v37c-73 5-123 50-123 109 0 74 63 94 123 110v130c-32-5-62-18-86-38-5-4-10-6-16-6-15 1-27 14-26 28 0 7 2 13 7 18 33 30 76 47 121 49v36c0 11 10 20 21 19 11 0 20-9 20-20v-36c88-6 123-59 123-116 0-77-64-100-123-116zm-41-10c-35-11-63-21-63-51s25-52 63-55v106zm41 192V289c36 10 65 24 64 58 0 24-17 53-64 59z" fill="#fff"/></svg></svg>